<svg width="225" height="239" viewBox="0 0 225 239" fill="none" xmlns="http://www.w3.org/2000/svg">
<path d="M43 3.28162V30.6108C43 30.626 43.0001 30.6412 43.0003 30.6565L43.0324 32.7579C44.436 106.294 75.7603 161.476 138.303 200.561L147.742 206.378C149.152 207.247 149.591 209.095 148.722 210.505C148.571 210.751 148.384 210.974 148.169 211.167L119.407 236.915C118.419 237.8 116.957 237.926 115.832 237.224C40.0198 189.967 0.961332 120.433 0 30.9625V30.8471V3.28162C0 1.62476 1.34315 0.281616 3 0.281616H40C41.6569 0.281616 43 1.62476 43 3.28162Z" fill="#1464F7"/>
<path d="M221.98 0C223.637 0 224.98 1.34315 224.98 3V30.6808C224.347 89.677 207.148 140.005 173.77 180.993C172.867 182.103 171.298 182.404 170.041 181.72L164.202 178.546C154.613 173.332 145.822 167.786 137.817 161.898C136.41 160.863 136.218 158.845 137.355 157.52C166.268 123.819 180.996 82.3733 181.948 32.4763L181.98 30.3749L181.98 3C181.98 1.34315 183.324 0 184.98 0L221.98 0Z" fill="#00E5E5"/>
<path d="M149.972 0.281616C151.629 0.281616 152.972 1.62476 152.972 3.28162V24.4332L152.971 24.5485C152.492 69.154 140.225 107.703 116.487 139.643C115.395 141.112 113.249 141.229 112.008 139.885C102.485 129.563 94.7977 118.398 88.9078 106.347C88.4592 105.429 88.526 104.347 89.056 103.474C102.48 81.353 109.381 55.5788 109.947 25.8219L109.972 24.2196V3.28162C109.972 1.62476 111.315 0.281616 112.972 0.281616H149.972Z" fill="#1464F7"/>
<path d="M21.5 40.2472C21.5 41.904 22.8431 43.2472 24.5 43.2472H129.472C131.129 43.2472 132.472 41.904 132.472 40.2472V3.24716C132.472 1.59031 131.129 0.247162 129.472 0.247162H24.5C22.8431 0.247162 21.5 1.59031 21.5 3.24716V40.2472Z" fill="#1464F7"/>
</svg>
