<svg width="343" height="64" viewBox="0 0 343 64" fill="none" xmlns="http://www.w3.org/2000/svg">
<path d="M90.7655 13.697H106.328C110.639 13.697 113.951 14.7485 116.265 16.8515C118.613 18.9195 119.787 21.7586 119.787 25.3688C119.787 27.7522 119.262 29.8377 118.21 31.6253C117.194 33.3778 115.686 34.7448 113.689 35.7262C111.691 36.6726 109.255 37.1458 106.381 37.1458H98.1261V50.5H90.7655V13.697ZM106.17 30.4161C107.537 30.4161 108.659 30.2408 109.535 29.8903C110.446 29.5047 111.13 28.9439 111.586 28.2079C112.041 27.4368 112.269 26.4904 112.269 25.3688C112.269 23.7214 111.761 22.4946 110.744 21.6885C109.728 20.8473 108.203 20.4267 106.17 20.4267H98.1261V30.4161H106.17ZM136.367 51.2361C133.773 51.2361 131.407 50.5876 129.269 49.2908C127.166 47.9588 125.501 46.1537 124.274 43.8755C123.048 41.5972 122.434 39.0735 122.434 36.3045C122.434 33.6758 123.048 31.2573 124.274 29.0491C125.501 26.8409 127.166 25.1059 129.269 23.8441C131.407 22.5472 133.773 21.8988 136.367 21.8988C139.416 21.8988 141.905 22.7575 143.833 24.475C145.795 26.1925 147.197 28.1904 148.039 30.4686C148.915 32.7469 149.353 34.6922 149.353 36.3045C149.353 38.0571 148.915 40.1075 148.039 42.4559C147.197 44.7692 145.795 46.8197 143.833 48.6073C141.905 50.3598 139.416 51.2361 136.367 51.2361ZM137.681 44.6641C139.223 44.6641 140.59 44.2785 141.782 43.5074C143.009 42.7363 143.955 41.7198 144.621 40.458C145.287 39.1612 145.62 37.7767 145.62 36.3045C145.62 34.9726 145.287 33.7108 144.621 32.5191C143.955 31.3274 143.009 30.3635 141.782 29.6274C140.59 28.8563 139.223 28.4708 137.681 28.4708C136.174 28.4708 134.789 28.8563 133.528 29.6274C132.301 30.3635 131.319 31.3449 130.583 32.5717C129.882 33.7634 129.532 35.0077 129.532 36.3045C129.532 37.7416 129.882 39.1086 130.583 40.4055C131.284 41.7023 132.248 42.7363 133.475 43.5074C134.737 44.2785 136.139 44.6641 137.681 44.6641ZM145.462 40.1426L147.618 36.1468L145.462 32.9397V22.6348H152.56V50.5H145.462V40.1426ZM175.113 50.8155C171.924 51.166 169.33 51.0783 167.332 50.5526C165.369 50.0619 163.915 49.1155 162.968 47.7135C162.057 46.2764 161.601 44.3662 161.601 41.9827V29.2068H156.502V22.6348H161.601V17.3247L168.384 15.2742V22.6348H175.113V29.2068H168.384V41.9827C168.384 42.894 168.647 43.56 169.172 43.9806C169.733 44.3662 170.469 44.594 171.381 44.6641C172.327 44.7342 173.571 44.7342 175.113 44.6641V50.8155ZM191.257 51.2886C188.594 51.2886 186.193 50.6402 184.055 49.3433C181.917 48.0465 180.234 46.2589 179.007 43.9806C177.816 41.7023 177.22 39.1787 177.22 36.4097C177.22 33.7108 177.816 31.2573 179.007 29.0491C180.234 26.8409 181.917 25.1059 184.055 23.8441C186.193 22.5472 188.594 21.8988 191.257 21.8988C193.921 21.8988 196.27 22.4421 198.303 23.5286C200.371 24.6152 202 26.175 203.192 28.2079L197.882 31.5202C197.181 30.5037 196.287 29.7501 195.201 29.2594C194.114 28.7336 192.8 28.4708 191.257 28.4708C190.171 28.4708 189.084 28.7862 187.998 29.4171C186.946 30.048 186.07 30.9769 185.369 32.2036C184.668 33.3954 184.317 34.7974 184.317 36.4097C184.317 38.0921 184.668 39.5642 185.369 40.8261C186.07 42.0879 186.946 43.0518 187.998 43.7177C189.084 44.3837 190.171 44.7167 191.257 44.7167C192.765 44.7167 194.009 44.4713 194.99 43.9806C196.007 43.4899 196.953 42.7013 197.829 41.6147L203.245 44.8744C202.018 46.9424 200.371 48.5372 198.303 49.6588C196.27 50.7454 193.921 51.2886 191.257 51.2886ZM207.172 12.9609H214.059V25.8945C215.005 24.4925 216.179 23.4761 217.582 22.8452C219.019 22.2142 220.578 21.8988 222.261 21.8988C224.329 21.8988 226.151 22.372 227.729 23.3183C229.306 24.2647 230.515 25.5791 231.356 27.2615C232.233 28.9089 232.671 30.7315 232.671 32.7294V50.5H225.573V35.1479C225.573 33.816 225.363 32.6943 224.942 31.783C224.522 30.8367 223.891 30.1357 223.049 29.68C222.243 29.1893 221.279 28.9439 220.158 28.9439C219.071 28.9439 218.072 29.1893 217.161 29.68C216.285 30.1357 215.584 30.8367 215.058 31.783C214.532 32.7294 214.269 33.8685 214.269 35.2005V50.5H207.172V12.9609ZM237.382 13.697H244.743V50.5H237.382V13.697ZM237.382 43.6652H264.196V50.5H237.382V43.6652ZM237.382 28.2605H263.039V35.0953H237.382V28.2605ZM237.382 13.697H264.196V20.5318H237.382V13.697ZM266.317 22.5823H273.415L280.092 42.6136L287.085 22.5823H294.182L282.984 50.5H277.148L266.317 22.5823ZM309.709 51.2361C307.115 51.2361 304.749 50.5876 302.611 49.2908C300.508 47.9588 298.843 46.1537 297.616 43.8755C296.389 41.5972 295.776 39.0735 295.776 36.3045C295.776 33.6758 296.389 31.2573 297.616 29.0491C298.843 26.8409 300.508 25.1059 302.611 23.8441C304.749 22.5472 307.115 21.8988 309.709 21.8988C312.758 21.8988 315.247 22.7575 317.174 24.475C319.137 26.1925 320.539 28.1904 321.38 30.4686C322.257 32.7469 322.695 34.6922 322.695 36.3045C322.695 38.0571 322.257 40.1075 321.38 42.4559C320.539 44.7692 319.137 46.8197 317.174 48.6073C315.247 50.3598 312.758 51.2361 309.709 51.2361ZM311.023 44.6641C312.565 44.6641 313.932 44.2785 315.124 43.5074C316.351 42.7363 317.297 41.7198 317.963 40.458C318.629 39.1612 318.962 37.7767 318.962 36.3045C318.962 34.9726 318.629 33.7108 317.963 32.5191C317.297 31.3274 316.351 30.3635 315.124 29.6274C313.932 28.8563 312.565 28.4708 311.023 28.4708C309.516 28.4708 308.131 28.8563 306.87 29.6274C305.643 30.3635 304.661 31.3449 303.925 32.5717C303.224 33.7634 302.874 35.0077 302.874 36.3045C302.874 37.7416 303.224 39.1086 303.925 40.4055C304.626 41.7023 305.59 42.7363 306.817 43.5074C308.079 44.2785 309.481 44.6641 311.023 44.6641ZM318.804 40.1426L320.96 36.1468L318.804 32.9397V22.6348H325.902V50.5H318.804V40.1426ZM331.684 13.0135H338.781V50.5H331.684V13.0135Z" fill="white"/>
<path d="M11.5434 0.880852V8.21737C11.5434 8.22146 11.5434 8.22555 11.5435 8.22965L11.5521 8.79377C11.9289 28.5346 20.3379 43.3481 37.1274 53.8406L39.6614 55.4021C40.0401 55.6354 40.1579 56.1315 39.9245 56.5102C39.8839 56.5762 39.8339 56.636 39.7761 56.6877L32.1629 63.5032C31.8336 63.798 31.3466 63.8404 30.9719 63.6059C10.701 50.9213 0.257548 32.2817 0 8.31178V8.28082V0.880852C0 0.436069 0.360568 0.0755005 0.805351 0.0755005H10.738C11.1828 0.0755005 11.5434 0.436069 11.5434 0.880852Z" fill="white"/>
<path d="M59.5908 0C60.0356 0 60.3961 0.360568 60.3961 0.805351V8.23628C60.2266 24.0144 55.6436 37.4829 46.7495 48.4638C46.4492 48.8345 45.9263 48.9344 45.5072 48.7065L44.0802 47.9307C41.5735 46.5677 39.2698 45.1202 37.1663 43.5856C36.6961 43.2425 36.6321 42.5703 37.0093 42.1269C44.6809 33.1088 48.5899 22.0346 48.8441 8.71827L48.8527 8.15415L48.8528 0.805351C48.8528 0.360568 49.2133 0 49.6581 0L59.5908 0Z" fill="#00E5E5"/>
<path d="M40.26 0.0755005C40.7048 0.0755005 41.0654 0.436069 41.0654 0.880852V6.559L41.0651 6.58996C40.9375 18.4802 37.6896 28.7674 31.4048 37.3062C31.0433 37.7973 30.3275 37.8366 29.9165 37.3862C27.7117 34.9702 25.879 32.383 24.4116 29.6171C23.9329 28.7148 24.0114 27.6327 24.512 26.7423C27.7186 21.0391 29.3721 14.4602 29.5154 6.93179L29.522 6.50167V0.880852C29.522 0.436069 29.8826 0.0755005 30.3274 0.0755005H40.26Z" fill="white"/>
<path d="M5.77167 8.60971C5.77167 10.2666 7.11481 11.6097 8.77167 11.6097H32.5621C34.219 11.6097 35.5621 10.2666 35.5621 8.60971V3.06635C35.5621 1.40949 34.219 0.0663452 32.5621 0.0663452H8.77167C7.11481 0.0663452 5.77167 1.40949 5.77167 3.06635V8.60971Z" fill="white"/>
</svg>
